<svg version="1.0" xmlns="http://www.w3.org/2000/svg" width="600" height="395" viewBox="0 0 600 395" preserveAspectRatio="xMidYMid meet">
  <g transform="translate(0.000000,395.000000) scale(0.050000,-0.050000)" fill="#1c1917" stroke="none">
    <path d="M3950 6733 c-197 -90 -362 -406 -630 -1216 -252 -756 -412 -1048 -770 -1397 -337 -329 -378 -480 -128 -480 440 0 829 550 1257 1780 245 704 359 879 466 715 47 -73 134 -554 136 -751 3 -387 187 -896 367 -1012 266 -172 570 -21 940 467 329 433 390 413 474 -156 183 -1234 446 -1388 1344 -787 379 255 446 254 776 -7 357 -282 524 -316 1067 -219 358 64 489 64 667 0 200 -72 283 -48 178 52 -149 141 -381 178 -806 128 -529 -62 -637 -36 -978 240 -436 352 -562 352 -1099 -8 -565 -377 -740 -240 -861 673 -83 635 -138 789 -306 859 -192 80 -341 -31 -674 -504 -501 -713 -603 -620 -767 700 -89 720 -336 1068 -653 923z"/>
    <path d="M8868 5159 c-257 -99 -407 -346 -287 -475 169 -181 439 94 439 447 0 80 -11 82 -152 28z"/>
  </g>
</svg>
